<svg width="130" height="48" viewBox="0 0 130 48" fill="none" xmlns="http://www.w3.org/2000/svg">
<path d="M38.845 47.9986H12.9483C5.79684 47.9986 0 41.8591 0 34.2847V13.7153C0 6.14094 5.79684 0.00135352 12.9483 0.00135352H38.8437C38.8437 7.57567 33.0468 13.7153 25.8954 13.7153H12.9483V34.2861H25.8966C33.0481 34.2861 38.845 40.4257 38.845 47.9986ZM71.2145 34.2861H58.2662V13.7153H71.2145C78.366 13.7153 84.1628 7.57567 84.1628 0.00135352H58.2662C51.1147 0.00135352 45.3178 6.14094 45.3178 13.7153V34.2861C45.3178 41.8604 51.1147 48 58.2662 48H84.1615C84.1615 40.4257 78.3647 34.2861 71.2145 34.2861ZM116.532 34.2861H103.584V13.7153C103.584 6.14094 97.7872 0.00135352 90.6357 0.00135352V34.2861C90.6357 41.8604 96.4325 48 103.584 48H129.479C129.479 40.4257 123.683 34.2861 116.532 34.2861ZM129.479 13.7139C129.479 6.13958 123.683 0 116.531 0V13.7139H129.479Z" fill="white"/>
</svg>
