<svg width="240" height="46" viewBox="0 0 240 46" fill="none" xmlns="http://www.w3.org/2000/svg">
<g clip-path="url(#clip0_761_6129)">
<path d="M231.684 22.6094C233.938 22.6094 235.775 24.4459 235.775 26.7004C235.775 28.9549 233.938 30.7914 231.684 30.7914C229.429 30.7914 227.593 28.9549 227.593 26.7004C227.593 24.4459 229.429 22.6094 231.684 22.6094ZM231.684 19.0808C227.473 19.0808 224.064 22.4949 224.064 26.7004C224.064 30.9059 227.478 34.32 231.684 34.32C235.889 34.32 239.303 30.9059 239.303 26.7004C239.303 22.4949 235.889 19.0808 231.684 19.0808Z" fill="#FF0028"/>
<path fill-rule="evenodd" clip-rule="evenodd" d="M77.4503 29.975C82.0141 29.975 85.7268 26.2673 85.7318 21.7085V21.6985C85.7318 17.1347 82.0191 13.4219 77.4503 13.4219C72.8815 13.4219 69.1688 17.1347 69.1688 21.6985C69.1688 26.2623 72.8815 29.975 77.4503 29.975ZM77.4503 10.0725C83.8754 10.0725 89.0813 15.2783 89.0813 21.6985C89.0813 21.6985 89.0813 21.6985 89.0813 21.7035V32.8865H85.7318V29.8556C83.6216 31.9957 80.6952 33.3245 77.4503 33.3245C71.0301 33.3245 65.8193 28.1187 65.8193 21.6985C65.8193 15.2783 71.0251 10.0725 77.4503 10.0725Z" fill="white"/>
<path fill-rule="evenodd" clip-rule="evenodd" d="M126.696 10.0725C133.122 10.0725 138.327 15.2783 138.327 21.6985C138.327 28.1187 133.122 33.3245 126.696 33.3245C123.456 33.3245 120.525 31.9957 118.415 29.8556V45.1645H115.065V21.6985C115.065 15.2783 120.271 10.0725 126.696 10.0725ZM126.696 29.975C131.26 29.975 134.978 26.2623 134.978 21.6985C134.978 17.1347 131.265 13.4219 126.696 13.4219C122.128 13.4219 118.415 17.1347 118.415 21.6985C118.415 26.2623 122.128 29.975 126.696 29.975Z" fill="white"/>
<path fill-rule="evenodd" clip-rule="evenodd" d="M155.413 29.975C159.982 29.975 163.695 26.2623 163.695 21.6985C163.695 17.1347 159.982 13.4219 155.413 13.4219C150.844 13.4219 147.132 17.1347 147.132 21.6985C147.132 26.2623 150.844 29.975 155.413 29.975ZM155.413 10.0725C161.838 10.0725 167.044 15.2783 167.044 21.6985C167.044 28.1187 161.838 33.3245 155.413 33.3245C148.988 33.3245 143.782 28.1187 143.782 21.6985C143.782 15.2783 148.988 10.0725 155.413 10.0725Z" fill="white"/>
<path d="M30.095 0.840576H26.7456V32.8867H30.095V0.840576Z" fill="white"/>
<path d="M177.092 10.5056H173.743V32.8866H177.092V10.5056Z" fill="white"/>
<path fill-rule="evenodd" clip-rule="evenodd" d="M221.446 10.5055V13.8549H217.221V32.8865H213.872V13.8549H209.815V10.5055H213.872V1.01953H217.221V10.5055H221.446Z" fill="white"/>
<path fill-rule="evenodd" clip-rule="evenodd" d="M195.601 10.0725C200.787 10.0725 204.993 14.278 204.993 19.4639V32.8915H201.643V19.4639C201.643 16.1343 198.931 13.4219 195.601 13.4219C192.272 13.4219 189.559 16.1343 189.559 19.4639V32.8915H186.21V19.4639C186.21 14.278 190.415 10.0725 195.601 10.0725Z" fill="white"/>
<path fill-rule="evenodd" clip-rule="evenodd" d="M97.2681 19.459C97.2681 14.2731 101.474 10.0676 106.659 10.0676C108.237 10.0676 109.725 10.4608 111.034 11.1476L109.088 13.9247C108.347 13.5962 107.525 13.4171 106.664 13.4171C103.33 13.4171 100.622 16.1295 100.622 19.459V32.8866H97.273V19.464L97.2681 19.459Z" fill="white"/>
<path fill-rule="evenodd" clip-rule="evenodd" d="M0.696777 21.6985C0.696777 15.2783 5.90259 10.0725 12.3277 10.0725C14.851 10.0725 17.1902 10.8788 19.0963 12.2474V16.9356C17.5983 14.8105 15.1247 13.4219 12.3277 13.4219C7.76394 13.4219 4.04622 17.1347 4.04622 21.6985C4.04622 26.2623 7.75897 29.975 12.3277 29.975C15.1198 29.975 17.5933 28.5865 19.0963 26.4614V31.1496C17.1902 32.5182 14.856 33.3245 12.3277 33.3245C5.90757 33.3245 0.696777 28.1187 0.696777 21.6985Z" fill="white"/>
<path fill-rule="evenodd" clip-rule="evenodd" d="M40.5017 20.0213H56.7213C55.9449 16.2588 52.6054 13.417 48.609 13.417C44.6126 13.417 41.278 16.2538 40.5017 20.0213ZM48.609 10.0725C55.0341 10.0725 60.24 15.2783 60.24 21.6985V23.3707H40.5017C41.278 27.1332 44.6175 29.975 48.609 29.975C51.4408 29.975 53.9442 28.5467 55.4373 26.3718L58.5777 27.6857C56.5421 31.065 52.8393 33.3245 48.609 33.3245C42.1888 33.3245 36.978 28.1187 36.978 21.6985C36.978 15.2783 42.1838 10.0725 48.609 10.0725Z" fill="white"/>
<path fill-rule="evenodd" clip-rule="evenodd" d="M175.42 3.07007C176.515 3.07007 177.396 3.95595 177.396 5.04589C177.396 6.13583 176.51 7.02171 175.42 7.02171C174.33 7.02171 173.444 6.13583 173.444 5.04589C173.444 3.95595 174.33 3.07007 175.42 3.07007Z" fill="white"/>
</g>
<defs>
<clipPath id="clip0_761_6129">
<rect width="240" height="45.1851" fill="white" transform="translate(0 0.407471)"/>
</clipPath>
</defs>
</svg>
